<?xml version="1.0" encoding="utf-8"?>
<!-- Generator: Adobe Illustrator 27.5.0, SVG Export Plug-In . SVG Version: 6.00 Build 0)  -->
<svg version="1.1" xmlns="http://www.w3.org/2000/svg" xmlns:xlink="http://www.w3.org/1999/xlink" x="0px" y="0px"
	 viewBox="0 0 1500 500" style="enable-background:new 0 0 1500 500;" xml:space="preserve">
<g id="BACKGROUND">
	<rect x="1.111" style="fill:#B7E69C;" width="1498.889" height="499.913"/>
</g>
<g id="OBJECTS">
	<g>
		<g>
			<polygon style="fill:#A95E91;" points="952.501,330.951 951.002,330.951 549.743,330.951 403.868,330.951 1.111,330.951 
				1.111,500 403.868,500 549.743,500 951.002,500 952.501,500 1499.634,500 1499.634,330.951 			"/>
			<polygon style="opacity:0.25;fill:#6F345B;" points="952.866,366.398 949.891,366.398 550.109,366.398 402.757,366.398 
				0,366.398 0,461.939 402.757,461.939 550.109,461.939 949.891,461.939 952.866,461.939 1500,461.939 1500,366.398 			"/>
			<polygon style="opacity:0.25;fill:#6F345B;" points="952.866,366.398 949.891,366.398 550.109,366.398 402.757,366.398 
				0,366.398 0,420.513 402.757,420.513 550.109,420.513 949.891,420.513 952.866,420.513 1500,420.513 1500,366.398 			"/>
			<polygon style="fill:#91B67D;" points="952.501,330.951 927.682,330.951 549.743,330.951 403.868,330.951 1.111,330.951 
				1.111,391.423 54.874,391.423 54.874,440.669 98.507,440.669 98.507,386.907 124.291,386.907 124.291,418.26 161.215,418.26 
				161.215,388.047 186.956,388.047 186.956,473.12 219.45,473.12 219.45,389.143 256.374,389.143 256.374,422.733 291.104,423.873 
				291.104,388.047 325.791,390.283 325.791,468.647 369.468,468.647 369.468,392.519 407.531,392.519 407.531,461.939 
				452.348,461.939 452.403,429.518 549.743,429.487 549.743,418.26 550.109,418.26 550.109,388.047 589.713,388.047 
				589.713,473.12 622.207,473.12 622.207,389.143 659.131,389.143 659.131,422.733 693.862,423.873 693.862,388.047 
				728.549,390.283 728.549,468.647 772.225,468.647 772.225,392.519 810.289,392.519 810.289,451.851 855.105,451.851 
				855.105,390.283 906.588,390.283 906.588,429.487 952.501,429.487 952.501,391.423 1004.765,391.423 1004.765,440.669 
				1048.397,440.669 1048.397,386.907 1074.182,386.907 1074.182,418.26 1111.106,418.26 1111.106,388.047 1136.847,388.047 
				1136.847,473.12 1169.341,473.12 1169.341,389.143 1206.264,389.143 1206.264,422.733 1240.995,423.873 1240.995,388.047 
				1275.682,390.283 1275.682,468.647 1319.359,468.647 1319.359,392.519 1357.422,392.519 1357.422,451.851 1402.239,451.851 
				1402.239,390.283 1453.721,390.283 1453.721,429.487 1499.634,429.487 1499.634,330.951 			"/>
		</g>
		<g>
			<g>
				<polygon style="fill:#DAFFC4;" points="619.411,121.161 619.411,143.527 396.248,143.527 396.248,124.889 423.085,124.889 
					423.085,95.771 456.676,95.771 456.676,63.671 496.23,63.671 496.23,75.6 533.549,75.6 533.549,91.298 582.093,91.298 
					582.093,121.161 				"/>
				<polygon style="fill:#DAFFC4;" points="1069.367,267.519 1069.367,289.884 846.204,289.884 846.204,271.246 873.042,271.246 
					873.042,242.128 906.632,242.128 906.632,210.029 946.187,210.029 946.187,221.957 983.505,221.957 983.505,237.656 
					1032.049,237.656 1032.049,267.519 				"/>
			</g>
			<g>
				<polygon style="fill:#DAFFC4;" points="733.865,296.228 733.865,305.175 606.255,305.175 606.255,285.792 629.365,285.792 
					629.365,264.875 673.436,264.875 673.436,276.846 708.518,276.846 708.518,296.228 				"/>
			</g>
			<g>
				<polygon style="fill:#DAFFC4;" points="171.009,243.246 171.009,252.193 43.399,252.193 43.399,232.81 66.51,232.81 
					66.51,211.893 110.581,211.893 110.581,223.864 145.662,223.864 145.662,243.246 				"/>
			</g>
			<g>
				<polygon style="fill:#DAFFC4;" points="1181.151,114.802 1181.151,123.749 1053.541,123.749 1053.541,104.366 1076.651,104.366 
					1076.651,83.449 1120.722,83.449 1120.722,95.42 1155.804,95.42 1155.804,114.802 				"/>
			</g>
			<g>
				<polygon style="fill:#DAFFC4;" points="1465.675,261.16 1465.675,270.106 1338.065,270.106 1338.065,250.724 1361.175,250.724 
					1361.175,229.806 1405.246,229.806 1405.246,241.778 1440.328,241.778 1440.328,261.16 				"/>
			</g>
			<g>
				<g>
					<path style="fill:#A95E91;" d="M1004.826,58.912l-14.474-17.765l-17.019,13.405l-17.575-13.405l-13.917,17.765v26.83
						l30.871,20.554c-0.009,0.525-0.015,0.837-0.015,0.837l0.636-0.424l0.636,0.424c0,0-0.005-0.313-0.015-0.837l30.871-20.554
						V58.912z"/>
				</g>
				<g>
					<path style="fill:#A95E91;" d="M303.347,97.33l-25.771-31.633l-30.303,23.869l-31.294-23.869l-24.78,31.633v47.773
						l54.968,36.598c-0.016,0.935-0.026,1.491-0.026,1.491l1.133-0.755l1.133,0.755c0,0-0.01-0.557-0.026-1.491l54.968-36.598V97.33
						z"/>
				</g>
				<g>
					<path style="fill:#A95E91;" d="M498.879,214.475l-16.698-20.496l-19.634,15.465l-20.276-15.465l-16.056,20.496v30.953
						l35.615,23.713c-0.011,0.605-0.017,0.966-0.017,0.966l0.734-0.489l0.734,0.489c0,0-0.007-0.361-0.017-0.966l35.615-23.713
						V214.475z"/>
				</g>
				<g>
					<path style="fill:#A95E91;" d="M1308.121,164.584l-22.255-27.317l-26.168,20.612l-27.024-20.612l-21.399,27.317v41.254
						l47.468,31.605c-0.014,0.806-0.023,1.287-0.023,1.287l0.978-0.651l0.978,0.651c0,0-0.009-0.481-0.023-1.287l47.468-31.605
						V164.584z"/>
				</g>
			</g>
			<g>
				<g>
					<path style="fill:#6F345B;" d="M582.863,264.875v-9.24h-9.243v-9.243h18.483v9.243h27.726v-18.487h-36.966v-9.24h-9.243
						v-18.487h9.243v-9.24h46.21v9.24h9.243v9.243h-18.487v-9.243h-27.726v18.487h36.97v9.24h9.243v18.487h-9.243v9.24H582.863z"/>
					<path style="fill:#6F345B;" d="M675.282,264.875v-55.453h-18.483v-9.24h55.453v9.24h-18.487v55.453H675.282z"/>
					<path style="fill:#6F345B;" d="M721.491,264.875v-46.21h9.244v-9.243h9.24v-9.24h27.726v9.24h9.244v9.243h9.243v46.21h-18.487
						v-18.483h-27.726v18.483H721.491z M739.975,237.148h27.726v-18.483h-9.24v-9.243h-9.244v9.243h-9.243V237.148z"/>
					<path style="fill:#6F345B;" d="M795.428,264.875v-64.693h55.452v9.24h9.244v27.726h-18.487v9.244h9.243v9.243h9.244v9.24
						h-27.727v-9.24h-9.243v-9.243h-9.243v18.483H795.428z M813.911,237.148h18.486v-9.24h9.24v-18.487h-27.726V237.148z"/>
					<path style="fill:#6F345B;" d="M897.09,264.875v-55.453h-18.483v-9.24h55.452v9.24h-18.487v55.453H897.09z"/>
				</g>
				<g>
					<path style="fill:#6F345B;" d="M573.62,179.898v-64.692h55.453v9.24h9.243v27.727h-9.243v9.243h-36.97v18.483H573.62z
						 M592.103,152.172h27.726v-27.727h-27.726V152.172z"/>
					<path style="fill:#6F345B;" d="M647.556,179.898v-64.692h55.452v9.24h9.244v27.727h-18.487v9.243h9.243v9.244h9.244v9.24
						h-27.727v-9.24h-9.243v-9.244h-9.243v18.483H647.556z M666.039,152.172h18.486v-9.24h9.24v-18.487h-27.726V152.172z"/>
					<path style="fill:#6F345B;" d="M721.491,179.898v-64.692h64.696v9.24h-46.213v18.487h36.97v9.24h-36.97v18.487h46.213v9.24
						H721.491z"/>
					<path style="fill:#6F345B;" d="M804.671,179.898v-9.24h-9.243v-9.244h18.483v9.244h27.726v-18.487h-36.966v-9.24h-9.243
						v-18.487h9.243v-9.24h46.209v9.24h9.244v9.244h-18.487v-9.244h-27.726v18.487h36.969v9.24h9.244v18.487h-9.244v9.24H804.671z"
						/>
					<path style="fill:#6F345B;" d="M878.607,179.898v-9.24h-9.244v-9.244h18.483v9.244h27.726v-18.487h-36.966v-9.24h-9.244
						v-18.487h9.244v-9.24h46.209v9.24h9.243v9.244h-18.487v-9.244h-27.726v18.487h36.97v9.24h9.243v18.487h-9.243v9.24H878.607z"/>
				</g>
			</g>
			<g>
				<polygon style="fill:#DAFFC4;" points="672.95,32.656 688.474,41.147 672.95,49.637 664.46,65.161 655.969,49.637 
					640.445,41.147 655.969,32.656 664.46,17.132 				"/>
				<polygon style="fill:#DAFFC4;" points="1013.316,168.13 1028.841,176.621 1013.316,185.111 1004.826,200.636 996.335,185.111 
					980.811,176.621 996.335,168.13 1004.826,152.607 				"/>
				<polygon style="fill:#DAFFC4;" points="854.695,328.201 870.219,336.692 854.695,345.182 846.204,360.706 837.714,345.182 
					822.189,336.692 837.714,328.201 846.204,312.677 				"/>
				<polygon style="fill:#DAFFC4;" points="503.565,360.95 519.089,369.441 503.565,377.931 495.074,393.455 486.584,377.931 
					471.06,369.441 486.584,360.95 495.074,345.426 				"/>
			</g>
			<g>
				<polygon style="fill:#DAFFC4;" points="1386.345,69.785 1401.87,78.276 1386.345,86.766 1377.855,102.29 1369.365,86.766 
					1353.84,78.276 1369.365,69.785 1377.855,54.261 				"/>
				<polygon style="fill:#DAFFC4;" points="1386.345,352.216 1401.87,360.706 1386.345,369.197 1377.855,384.721 1369.364,369.197 
					1353.84,360.706 1369.364,352.216 1377.855,336.692 				"/>
				<polygon style="fill:#DAFFC4;" points="1199.304,281.393 1214.829,289.884 1199.304,298.374 1190.814,313.898 1182.323,298.374 
					1166.799,289.884 1182.323,281.393 1190.814,265.869 				"/>
			</g>
			<g>
				<polygon style="fill:#DAFFC4;" points="80.054,45.771 95.578,54.261 80.054,62.751 71.563,78.275 63.073,62.751 47.549,54.261 
					63.073,45.771 71.563,30.246 				"/>
				<polygon style="fill:#DAFFC4;" points="335.852,223.551 351.377,232.042 335.852,240.532 327.362,256.057 318.872,240.532 
					303.347,232.042 318.872,223.551 327.362,208.028 				"/>
				<polygon style="fill:#DAFFC4;" points="162.053,333.893 177.578,342.384 162.053,350.874 153.563,366.398 145.073,350.874 
					129.548,342.384 145.073,333.893 153.563,318.369 				"/>
			</g>
		</g>
	</g>
</g>
</svg>
